<svg xmlns="http://www.w3.org/2000/svg" viewBox="0 0 600 600"><path d="M597.5,176.77V423.23L423.23,597.5H176.77L2.5,423.23V176.77L176.77,2.5H423.23Z" style="fill:#ed143d;stroke:#000;stroke-miterlimit:10"/><path d="M162.4,452a32.52,32.52,0,0,1-32.49-32.49V290a32.52,32.52,0,0,1,32.49-32.49h64.75a32.59,32.59,0,0,1,27.91,15.88c9.28-.57,13.41-1.78,15.25-2.78,1.32-.71,2.1-2,4.92-7.86l.24-.5c.58-1.23,1.18-2.5,1.87-3.85,3.56-7.13,15.35-32.7,24.83-53.25,11.9-25.79,25.39-55,31.74-68A16.43,16.43,0,0,1,348.55,128c15.83,0,28.89,7.76,36.8,21.87,5.29,9.41,8.18,21.81,8.14,34.91,0,12.1-2.49,23-6.74,30-9.8,16-8.8,23.27-8.26,25.11a4.23,4.23,0,0,0,.73,1.42c1,.06,2.63.12,5.34.12,3.76,0,8.11-.11,11.29-.19,4.35-.11,8.84-.23,12.94-.23,7.22,0,12.14.36,16,1.16,12,2.51,25.6,6.61,35.16,23.65,10.18,18.14,10.18,39.86,10.18,72.74,0,40.46-12.75,72.64-18.93,81.88-10.1,15.15-21.37,23.75-36.52,27.89-13.21,3.61-28.38,3.61-49.38,3.61h-.52a263.09,263.09,0,0,1-77.51-11.26c-9.72-2.9-22.85-4.07-32.17-4.55A32.6,32.6,0,0,1,227.15,452Zm64.65-32.62V290.1H162.53V419.37Zm32.6-15.68c11.54.72,25.43,2.3,36.93,5.74a228.57,228.57,0,0,0,68.18,9.89h.53c39.81,0,47.42-.45,58-15.94l.7-1.06c3-4.45,13.45-30.64,13.45-63.81,0-27.73,0-46.06-6-56.76-2.57-4.57-4-5.74-13.4-7.7-.81-.17-3.11-.46-9.28-.46-3.78,0-8,.1-11.78.2h-.33c-4.12.1-8.44.2-12.1.2-8.29,0-14-.45-18.77-2.72a35.67,35.67,0,0,1-18.6-22.17c-4.27-14.41-.33-31.7,11.72-51.38.49-.92,1.93-5.83,1.95-13s-1.47-14.42-4-18.89c-.1-.18-.2-.36-.3-.52-6.06,12.89-14.07,30.24-21.87,47.13l-3.2,6.93c-11,23.86-21.42,46.41-25.05,53.65-.62,1.27-1.23,2.54-1.82,3.77-3.71,7.79-7.91,16.6-18.82,22.51-6.48,3.5-14.74,5.56-26.2,6.46Z" style="fill:#fff"/></svg>