<svg xmlns="http://www.w3.org/2000/svg" viewBox="0 0 600 600"><path d="M597.5,176.77V423.23L423.23,597.5H176.77L2.5,423.23V176.77L176.77,2.5H423.23Z" style="fill:#ed143d;stroke:#000;stroke-miterlimit:10"/><path d="M369.69,292.91v152.5a12,12,0,0,1-12,12H330.54a12,12,0,0,1-12-12V292.91a12,12,0,0,1,12-12h27.15A12,12,0,0,1,369.69,292.91Zm-102.79,19H239.76a12,12,0,0,0-12,12v121.5a12,12,0,0,0,12,12H266.9a12,12,0,0,0,12-12V323.91A12,12,0,0,0,266.9,311.91Zm-88.22-67H151.53a12,12,0,0,0-12,12v188.5a12,12,0,0,0,12,12h27.15a12,12,0,0,0,12-12V256.91A12,12,0,0,0,178.68,244.91Zm269.79,120.8H421.32a12,12,0,0,0-12,12v67.7a12,12,0,0,0,12,12h27.15a12,12,0,0,0,12-12v-67.7A12,12,0,0,0,448.47,365.71Z" style="fill:#fff"/><polyline points="155 142.59 247.46 226.98 327.37 176.47 444.38 278.24" style="fill:none;stroke:#fff;stroke-linecap:round;stroke-linejoin:round;stroke-width:34px"/><polygon points="481.48 241.5 481.48 314.43 404.88 314.43 481.48 241.5" style="fill:#fff;stroke:#fff;stroke-linecap:round;stroke-linejoin:round;stroke-width:14px"/></svg>